<?xml version="1.0" encoding="utf-8"?>
<!-- Generator: Adobe Illustrator 24.0.1, SVG Export Plug-In . SVG Version: 6.00 Build 0)  -->
<svg version="1.1" id="Layer_1" xmlns="http://www.w3.org/2000/svg" xmlns:xlink="http://www.w3.org/1999/xlink" x="0px" y="0px"
	 viewBox="0 0 2400 2600" style="enable-background:new 0 0 2400 2600;" xml:space="preserve">
<style type="text/css">
	.st0{fill:#094166;}
	.st1{fill:#C1262B;}
	.st2{fill:#FFFFFF;}
	.st3{font-family:'Broadway';}
	.st4{font-size:1059.5271px;}
	.st5{font-family:'BritannicBold';}
	.st6{font-size:376.8508px;}
	.st7{font-family:'BodoniBT-Book';}
	.st8{font-size:166.8983px;}
	.st9{letter-spacing:35.41;}
	.st10{fill:none;stroke:#C1262B;stroke-width:4;stroke-miterlimit:10;}
	.st11{fill:none;stroke:#094166;stroke-width:4;stroke-miterlimit:10;}
</style>
<path class="st0" d="M1467.24,770.16c0,0,42.01-101.7,65.15-213.79l-324.33-332.36L479.28,945.64l269.73,272.33
	C914.15,1200.88,1307.09,1123.22,1467.24,770.16z"/>
<path class="st1" d="M1929.68,963.5l-372.23-381.45c-2.57,97.98-19.64,224.56-76.21,346.76c0,0-174,343.81-603.93,418.68
	l345.03,348.35L1929.68,963.5z"/>
<text transform="matrix(1 0 0 1 854.0601 1322.1338)" class="st2 st3 st4">D</text>
<g>
	<text transform="matrix(1 0 0 1 164.3655 2064.1924)" class="st0 st5 st6">DESTOHOLIC</text>
</g>
<g>
	<text transform="matrix(0.9601 0 0 1 164.3636 2262.0684)" class="st1 st7 st8 st9">VISA &amp; IMMIGRATION</text>
</g>
<path class="st0" d="M1580.6,452.78c-1.52,12.74-3.04,24.91-4.29,37.11c-0.12,1.18,1.16,3.01,2.3,3.73
	c5.31,3.38,10.79,6.49,16.23,9.66c5.07,2.96,5.08,2.95,3.81,9.75c-8.34-2.27-16.66-4.52-25.15-6.83c-1.64,4.91-3.18,9.54-4.72,14.16
	c-0.43,0.04-0.86,0.09-1.29,0.13c-1.27-4.72-2.54-9.43-3.94-14.6c-8.4,1.61-16.85,3.23-25.33,4.85c-1.45-5.07-0.15-7.99,4.72-9.68
	c3.98-1.39,7.46-4.34,11.48-5.51c6.7-1.95,8.22-5.88,7.52-12.43c-1.08-10.14-1.22-20.38-1.85-32.12
	c-20.34,3.2-40.27,6.34-60.23,9.48c-1.49-3.69-0.22-5.55,2.91-7.07c5.97-2.9,11.63-6.44,17.69-9.12c3.48-1.54,4.4-3.73,4.29-7.12
	c-0.08-2.66-0.6-6.01,3.4-6.24c3.54-0.2,7.91-1.21,8.22,4.57c4.44-1.18,7.86-2.65,7.31-8.2c-0.24-2.45-1.36-6.45,3.32-6.62
	c3.84-0.14,8.39-0.89,8.11,5.33c4.3-0.94,5.51-3.36,5.54-7.41c0.05-6.98,0.22-14.08,1.51-20.91c1.05-5.57,3.2-11.15,5.95-16.12
	c3.11-5.61,6.46-5.09,9.62,0.52c3.89,6.91,5.1,14.4,5.07,22.17c-0.03,5.63-0.46,11.27-0.25,16.89c0.07,1.91,1.54,3.77,3.37,6.05
	c0.69-6.27,4.69-4.87,7.98-4.95c3.4-0.08,4.79,1.7,4.15,4.83c-1.15,5.65,1.16,9.05,6.6,10.79c0.62-5.91,5.05-4.03,8.52-3.83
	c3.98,0.23,3.29,3.52,2.96,5.83c-0.59,4.18,0.96,6.53,4.61,8.5c5.53,2.98,10.9,6.33,16.02,9.97c1.94,1.38,3.01,3.99,3.92,6.58
	C1620.08,462.5,1601.19,454.36,1580.6,452.78z"/>
<path class="st10" d="M1929.68,963.5l-372.23-381.45c-2.57,97.98-19.64,224.56-76.21,346.76c0,0-174,343.81-603.93,418.68
	l345.03,348.35L1929.68,963.5z"/>
<path class="st11" d="M1467.24,770.16c0,0,42.01-101.7,65.15-213.79l-324.33-332.36L479.28,945.64l269.73,272.33
	C914.15,1200.88,1307.09,1123.22,1467.24,770.16z"/>
</svg>
